<svg width="46" height="46" viewBox="0 0 46 46" fill="none" xmlns="http://www.w3.org/2000/svg">
<path d="M18.1331 16.56C18.0367 16.5602 17.9431 16.5275 17.8678 16.4672C17.7925 16.407 17.74 16.3229 17.7191 16.2288C17.2833 14.8085 17.3648 13.2798 17.9491 11.914C18.2936 11.3603 18.7986 10.9246 19.3968 10.6649C19.995 10.4053 20.6581 10.3339 21.2979 10.4604C21.3528 10.4712 21.4051 10.4928 21.4518 10.5239C21.4984 10.555 21.5384 10.595 21.5696 10.6415C21.6008 10.6881 21.6225 10.7403 21.6335 10.7953C21.6445 10.8502 21.6446 10.9068 21.6337 10.9618C21.6228 11.0167 21.6012 11.069 21.5701 11.1157C21.539 11.1623 21.4991 11.2023 21.4525 11.2335C21.406 11.2647 21.3537 11.2864 21.2988 11.2974C21.2438 11.3084 21.1872 11.3084 21.1323 11.2976C20.6704 11.2044 20.1911 11.2519 19.7565 11.4339C19.3219 11.616 18.9519 11.9242 18.6943 12.3188C18.2284 13.4935 18.1797 14.7925 18.5563 15.9988C18.5782 16.1097 18.5558 16.2247 18.4939 16.3193C18.4319 16.4139 18.3355 16.4805 18.2251 16.5048L18.1331 16.56Z" fill="white"/>
<path d="M41.9243 32.3379H9.44828C8.58689 32.2929 7.77563 31.9189 7.18185 31.2933C6.58806 30.6676 6.25703 29.8379 6.25703 28.9753C6.25703 28.1128 6.58806 27.2831 7.18185 26.6574C7.77563 26.0317 8.58689 25.6578 9.44828 25.6127H31.9607V29.8815C31.9573 29.9844 31.9742 30.0869 32.0105 30.1832C32.0468 30.2795 32.1018 30.3677 32.1723 30.4427C32.2285 30.4951 32.3025 30.5243 32.3793 30.5243C32.4561 30.5243 32.5301 30.4951 32.5863 30.4427L33.6075 29.4399L34.6379 30.4151C34.696 30.4675 34.7712 30.497 34.8495 30.4979C34.9204 30.496 34.9885 30.4701 35.0427 30.4243C35.1131 30.3493 35.1681 30.2611 35.2044 30.1648C35.2407 30.0685 35.2577 29.966 35.2543 29.8631V25.6127H41.9243C42.0147 25.6236 42.1064 25.6152 42.1933 25.588C42.2802 25.5608 42.3603 25.5155 42.4285 25.4551C42.4966 25.3947 42.5511 25.3205 42.5885 25.2375C42.6258 25.1544 42.6451 25.0644 42.6451 24.9733C42.6451 24.8823 42.6258 24.7923 42.5885 24.7092C42.5511 24.6262 42.4966 24.552 42.4285 24.4916C42.3603 24.4311 42.2802 24.3859 42.1933 24.3587C42.1064 24.3315 42.0147 24.3231 41.9243 24.3339H9.44828C8.21731 24.3339 7.03675 24.8229 6.16632 25.6934C5.29589 26.5638 4.80688 27.7444 4.80688 28.9753C4.80688 30.2063 5.29589 31.3869 6.16632 32.2573C7.03675 33.1277 8.21731 33.6167 9.44828 33.6167H41.9243C42.0147 33.6276 42.1064 33.6192 42.1933 33.592C42.2802 33.5648 42.3603 33.5195 42.4285 33.4591C42.4966 33.3987 42.5511 33.3245 42.5885 33.2415C42.6258 33.1584 42.6451 33.0684 42.6451 32.9773C42.6451 32.8863 42.6258 32.7963 42.5885 32.7132C42.5511 32.6302 42.4966 32.556 42.4285 32.4956C42.3603 32.4351 42.2802 32.3899 42.1933 32.3627C42.1064 32.3355 42.0147 32.3271 41.9243 32.3379Z" fill="#FFDA77"/>
<path d="M6.49525 42.9732H38.9713C39.8327 42.9281 40.6439 42.5542 41.2377 41.9285C41.8315 41.3029 42.1625 40.4732 42.1625 39.6106C42.1625 38.748 41.8315 37.9183 41.2377 37.2927C40.6439 36.667 39.8327 36.2931 38.9713 36.248H16.4588V40.48C16.4622 40.5829 16.4453 40.6854 16.409 40.7817C16.3727 40.878 16.3177 40.9662 16.2472 41.0412C16.191 41.0936 16.1171 41.1227 16.0402 41.1227C15.9634 41.1227 15.8895 41.0936 15.8332 41.0412L14.812 40.0936L13.8 41.0688C13.7419 41.1212 13.6667 41.1506 13.5885 41.1516C13.5152 41.1478 13.4447 41.1222 13.3861 41.078C13.2504 40.923 13.1781 40.7227 13.1836 40.5168V36.248H6.49525C6.40484 36.2589 6.31316 36.2504 6.22625 36.2233C6.13934 36.1961 6.05918 36.1508 5.99107 36.0904C5.92295 36.03 5.86841 35.9558 5.83107 35.8727C5.79372 35.7897 5.77441 35.6997 5.77441 35.6086C5.77441 35.5175 5.79372 35.4275 5.83107 35.3445C5.86841 35.2614 5.92295 35.1872 5.99107 35.1268C6.05918 35.0664 6.13934 35.0211 6.22625 34.9939C6.31316 34.9668 6.40484 34.9583 6.49525 34.9692H38.9713C40.2022 34.9692 41.3828 35.4582 42.2532 36.3286C43.1236 37.1991 43.6127 38.3796 43.6127 39.6106C43.6127 40.8416 43.1236 42.0221 42.2532 42.8926C41.3828 43.763 40.2022 44.252 38.9713 44.252H6.49525C6.40484 44.2629 6.31316 44.2544 6.22625 44.2273C6.13934 44.2001 6.05918 44.1548 5.99107 44.0944C5.92295 44.034 5.86841 43.9598 5.83107 43.8767C5.79372 43.7937 5.77441 43.7037 5.77441 43.6126C5.77441 43.5215 5.79372 43.4315 5.83107 43.3485C5.86841 43.2654 5.92295 43.1912 5.99107 43.1308C6.05918 43.0704 6.13934 43.0251 6.22625 42.9979C6.31316 42.9708 6.40484 42.9623 6.49525 42.9732Z" fill="#FFDA77"/>
<path d="M30.2037 8.58359C31.4686 7.57888 32.2987 6.12622 32.5221 4.52639C31.7785 4.32387 31.0112 4.22176 30.2405 4.22279C28.0877 4.22279 25.1253 5.06919 24.5365 9.50358C22.9846 8.76998 21.3018 8.35396 19.5869 8.27998C17.3789 8.27998 15.2629 9.32879 15.0605 13.2204C14.7201 20.24 18.4001 23.9936 22.1813 23.9936C22.9549 23.9926 23.7208 23.8394 24.4353 23.5428C25.1308 23.998 25.941 24.2468 26.7721 24.2604C30.1393 24.2604 34.0677 19.7984 34.5093 13.386C34.7485 9.93599 32.1173 8.77678 30.2037 8.58359ZM29.9921 5.01399C30.4995 5.01506 31.0053 5.07058 31.5009 5.17959C31.2985 6.15479 30.3877 9.04358 26.4317 9.04358C26.1373 9.04358 25.8337 9.04358 25.5117 8.99758H25.4565C25.5283 8.64912 25.6298 8.30746 25.7601 7.97639C26.0115 7.06785 26.5714 6.27521 27.3437 5.73462C28.116 5.19403 29.0524 4.93923 29.9921 5.01399ZM33.2397 13.294C33.5617 16.79 30.4797 22.9816 26.7997 22.9816C26.2098 22.9637 25.6364 22.7821 25.1437 22.4572L24.5549 22.08L23.9201 22.356C23.3642 22.5918 22.7667 22.7138 22.1629 22.7148C21.4841 22.6995 20.8157 22.5455 20.1986 22.2623C19.5816 21.9791 19.029 21.5727 18.5749 21.068C16.9557 19.32 16.1553 16.56 16.3393 13.248C16.5233 9.93599 18.1793 9.52199 19.5869 9.52199C21.2115 9.62557 22.7983 10.0575 24.2513 10.7916L24.8401 11.04L25.4105 10.7824C27.0389 10.0464 29.4769 9.30119 31.1697 10.1568C32.1206 10.6924 32.8216 11.5818 33.1201 12.6316C33.1793 12.8484 33.2194 13.0701 33.2397 13.294Z" fill="#FFDA77"/>
</svg>
