<svg width="26" height="30" viewBox="0 0 26 30" fill="none" xmlns="http://www.w3.org/2000/svg">
<path fill-rule="evenodd" clip-rule="evenodd" d="M1.52545 28.3918L11.1657 24.5285C11.1657 24.5285 23.8597 9.39416 24.6952 8.39788C25.5313 7.4016 24.4364 5.14727 22.4379 3.45816C20.44 1.76904 18.0407 1.07034 17.2052 2.06662C16.3698 3.06355 3.67507 18.1979 3.67507 18.1979L1.52545 28.3918Z" stroke="#FFDA77" stroke-width="1.5" stroke-linecap="round"/>
<path d="M11.1659 24.5288L10.8941 21.1532L7.42124 21.3635L7.03464 17.8915L3.67529 18.1975" stroke="#FFDA77" stroke-width="1.5" stroke-linecap="round"/>
<path d="M14.0848 5.78748L21.5747 12.1187" stroke="#FFDA77" stroke-width="1.5" stroke-linecap="round"/>
<path d="M2.23175 25.0419L4.55521 27.0064" stroke="#FFDA77" stroke-width="1.5" stroke-linecap="round"/>
<path d="M7.42096 21.3633L17.8175 8.96643" stroke="#FFDA77" stroke-width="1.5" stroke-linecap="round"/>
<path d="M7.03455 17.8913L15.8996 7.32227" stroke="#FFDA77" stroke-width="1.5" stroke-linecap="round"/>
<path d="M10.8941 21.1533L19.7131 10.6396" stroke="#FFDA77" stroke-width="1.5" stroke-linecap="round"/>
</svg>
