<svg width="36" height="37" viewBox="0 0 36 37" fill="none" xmlns="http://www.w3.org/2000/svg">
<path fill-rule="evenodd" clip-rule="evenodd" d="M31.3647 9.0888C31.3647 7.69437 30.2404 6.56323 28.8543 6.56323C27.4674 6.56323 26.343 7.69437 26.343 9.0888C26.343 10.484 27.4674 11.6152 28.8543 11.6152C30.2404 11.6152 31.3647 10.484 31.3647 9.0888Z" stroke="#FFDA77" stroke-width="1.5"/>
<path d="M30.3834 13.4497C29.9596 13.122 29.4298 12.9271 28.8542 12.9271C27.4673 12.9271 26.3438 14.0583 26.3438 15.4527" stroke="#FFDA77" stroke-width="1.5" stroke-linecap="round"/>
<path fill-rule="evenodd" clip-rule="evenodd" d="M24.2485 9.0888C24.2485 7.69437 23.1242 6.56323 21.7381 6.56323C20.3512 6.56323 19.2268 7.69437 19.2268 9.0888C19.2268 10.484 20.3512 11.6152 21.7381 11.6152C23.1242 11.6152 24.2485 10.484 24.2485 9.0888Z" stroke="#FFDA77" stroke-width="1.5"/>
<path d="M24.2485 16.1733V15.4526C24.2485 14.0581 23.1249 12.927 21.7381 12.927C20.3512 12.927 19.2268 14.0581 19.2268 15.4526V19.4219" stroke="#FFDA77" stroke-width="1.5" stroke-linecap="round"/>
<path fill-rule="evenodd" clip-rule="evenodd" d="M17.1321 9.0888C17.1321 7.69437 16.0077 6.56323 14.6216 6.56323C13.2347 6.56323 12.1104 7.69437 12.1104 9.0888C12.1104 10.484 13.2347 11.6152 14.6216 11.6152C16.0077 11.6152 17.1321 10.484 17.1321 9.0888Z" stroke="#FFDA77" stroke-width="1.5"/>
<path d="M17.1321 19.3878V15.4527C17.1321 14.0583 16.0085 12.9271 14.6216 12.9271C13.2347 12.9271 12.1104 14.0583 12.1104 15.4527V16.206" stroke="#FFDA77" stroke-width="1.5" stroke-linecap="round"/>
<path fill-rule="evenodd" clip-rule="evenodd" d="M10.0159 9.0888C10.0159 7.69437 8.89149 6.56323 7.5054 6.56323C6.11851 6.56323 4.99414 7.69437 4.99414 9.0888C4.99414 10.484 6.11851 11.6152 7.5054 11.6152C8.89149 11.6152 10.0159 10.484 10.0159 9.0888Z" stroke="#FFDA77" stroke-width="1.5"/>
<path d="M10.016 15.4524C10.016 14.058 8.89243 12.9269 7.50555 12.9269C6.90857 12.9269 6.36062 13.1369 5.92969 13.4861" stroke="#FFDA77" stroke-width="1.5" stroke-linecap="round"/>
<path fill-rule="evenodd" clip-rule="evenodd" d="M20.6904 23.4069C20.6904 22.0125 19.566 20.8813 18.18 20.8813C16.7931 20.8813 15.6687 22.0125 15.6687 23.4069C15.6687 24.8021 16.7931 25.9333 18.18 25.9333C19.566 25.9333 20.6904 24.8021 20.6904 23.4069Z" stroke="#FFDA77" stroke-width="1.5"/>
<path fill-rule="evenodd" clip-rule="evenodd" d="M18.1797 27.2452C16.7928 27.2452 15.6692 28.3764 15.6692 29.7708V35.6954H20.6901V29.7708C20.6901 28.3764 19.5665 27.2452 18.1797 27.2452Z" stroke="#FFDA77" stroke-width="1.5"/>
<path fill-rule="evenodd" clip-rule="evenodd" d="M27.8066 20.2252C27.8066 18.8307 26.6823 17.6996 25.2962 17.6996C23.9093 17.6996 22.7849 18.8307 22.7849 20.2252C22.7849 21.6204 23.9093 22.7515 25.2962 22.7515C26.6823 22.7515 27.8066 21.6204 27.8066 20.2252Z" stroke="#FFDA77" stroke-width="1.5"/>
<path fill-rule="evenodd" clip-rule="evenodd" d="M25.2959 24.0634C23.909 24.0634 22.7854 25.1945 22.7854 26.5889V32.5135H27.8063V26.5889C27.8063 25.1945 26.6828 24.0634 25.2959 24.0634Z" stroke="#FFDA77" stroke-width="1.5"/>
<path fill-rule="evenodd" clip-rule="evenodd" d="M34.9228 17.0434C34.9228 15.649 33.7985 14.5178 32.4124 14.5178C31.0255 14.5178 29.9011 15.649 29.9011 17.0434C29.9011 18.4386 31.0255 19.5698 32.4124 19.5698C33.7985 19.5698 34.9228 18.4386 34.9228 17.0434Z" stroke="#FFDA77" stroke-width="1.5"/>
<path fill-rule="evenodd" clip-rule="evenodd" d="M32.4121 20.8816C31.0252 20.8816 29.9016 22.0127 29.9016 23.4072V29.3317H34.9225V23.4072C34.9225 22.0127 33.799 20.8816 32.4121 20.8816Z" stroke="#FFDA77" stroke-width="1.5"/>
<path fill-rule="evenodd" clip-rule="evenodd" d="M13.574 20.2252C13.574 18.8307 12.4496 17.6996 11.0635 17.6996C9.67662 17.6996 8.55225 18.8307 8.55225 20.2252C8.55225 21.6204 9.67662 22.7515 11.0635 22.7515C12.4496 22.7515 13.574 21.6204 13.574 20.2252Z" stroke="#FFDA77" stroke-width="1.5"/>
<path fill-rule="evenodd" clip-rule="evenodd" d="M11.0634 24.0634C9.67656 24.0634 8.55298 25.1945 8.55298 26.5889V32.5135H13.5739V26.5889C13.5739 25.1945 12.4503 24.0634 11.0634 24.0634Z" stroke="#FFDA77" stroke-width="1.5"/>
<path fill-rule="evenodd" clip-rule="evenodd" d="M6.45776 17.0434C6.45776 15.649 5.33338 14.5178 3.94729 14.5178C2.56041 14.5178 1.43604 15.649 1.43604 17.0434C1.43604 18.4386 2.56041 19.5698 3.94729 19.5698C5.33338 19.5698 6.45776 18.4386 6.45776 17.0434Z" stroke="#FFDA77" stroke-width="1.5"/>
<path fill-rule="evenodd" clip-rule="evenodd" d="M3.94699 20.8816C2.5601 20.8816 1.43652 22.0127 1.43652 23.4072V29.3317H6.45745V23.4072C6.45745 22.0127 5.33387 20.8816 3.94699 20.8816Z" stroke="#FFDA77" stroke-width="1.5"/>
<path d="M28.644 1.03943V3.72807" stroke="#FFDA77" stroke-width="1.5" stroke-linecap="round"/>
<path d="M32.7473 2.08813L31.3794 4.47291" stroke="#FFDA77" stroke-width="1.5" stroke-linecap="round"/>
<path d="M24.5403 2.08813L25.9082 4.47291" stroke="#FFDA77" stroke-width="1.5" stroke-linecap="round"/>
</svg>
