<svg width="34" height="29" viewBox="0 0 34 29" fill="none" xmlns="http://www.w3.org/2000/svg">
<path fill-rule="evenodd" clip-rule="evenodd" d="M25.7602 27.6399H3.56084C2.20084 27.6399 1.0993 26.5153 1.0993 25.1283V8.3035C1.0993 6.91582 2.20084 5.79187 3.56084 5.79187H25.7602C27.1196 5.79187 28.2218 6.91582 28.2218 8.3035V25.1283C28.2218 26.5153 27.1196 27.6399 25.7602 27.6399Z" stroke="#FFDA77" stroke-width="1.5" stroke-linecap="round" stroke-linejoin="round"/>
<path d="M4.01471 5.76036V4.07254C4.01471 2.75394 5.22086 1.35999 6.51317 1.35999H30.0418C31.3341 1.35999 32.5649 2.75394 32.5649 4.07254V21.5478C32.5649 22.8664 31.3341 23.208 30.0418 23.208H28.2522" stroke="#FFDA77" stroke-width="1.5" stroke-linecap="round" stroke-linejoin="round"/>
<path fill-rule="evenodd" clip-rule="evenodd" d="M11.6923 11.3075C11.5329 11.3075 11.3735 11.3496 11.2308 11.4337C10.9452 11.602 10.7692 11.9128 10.7692 12.2494V20.6181C10.7692 20.9547 10.9452 21.2655 11.2308 21.4337C11.3735 21.5179 11.5329 21.56 11.6923 21.56C11.8517 21.56 12.0111 21.5179 12.1538 21.4337L19.2566 17.2494C19.5422 17.0811 19.7182 16.7703 19.7182 16.4337C19.7182 16.0972 19.5422 15.7864 19.2566 15.6181L12.1538 11.4337C12.0111 11.3496 11.8517 11.3075 11.6923 11.3075ZM11.6923 12.2494L18.7951 16.4337L11.6923 20.6181V12.2494Z" fill="#FFDA77"/>
</svg>
