<?xml version="1.0" encoding="UTF-8"?>
<svg xmlns="http://www.w3.org/2000/svg" width="1243" height="343" viewBox="-86 -86 1243 343" fill="black" stroke="none">
	<g id="symbol">
		<circle id="symbol-fill" fill="white"
			cx="85.53" cy="85.53" r="85.53" />
		<path id="symbol-left" fill="#14748F"
			d="M33.66,153.53c6.9-22,10.4-44.75,10.4-67.99s-3.5-45.99-10.4-67.99C13.21,33.17,0,57.8,0,85.53s13.21,52.36,33.66,67.99Z" />
		<path id="symbol-middle" fill="black"
			d="M61.64,126.9c10.63-8.78,22.01-16.69,34.11-23.67,12.1-6.98,24.63-12.88,37.55-17.7-12.92-4.81-25.46-10.7-37.56-17.69-12.1-6.98-23.47-14.89-34.1-23.67,2.29,13.59,3.46,27.4,3.46,41.37s-1.17,27.77-3.46,41.36Z" />
		<path id="symbol-bottom" fill="#4AB3E0"
			d="M106.27,121.45c-20.13,11.62-38.09,26.04-53.7,43.02,10.15,4.24,21.28,6.59,32.96,6.59,43.53,0,79.44-32.53,84.81-74.6-22.5,5.03-43.95,13.37-64.07,24.99Z" />
		<path id="symbol-top" fill="#F58F1B"
			d="M106.27,49.61c20.12,11.62,41.58,19.96,64.08,24.99C164.98,32.53,129.07,0,85.53,0c-11.69,0-22.82,2.35-32.97,6.59,15.61,16.98,33.57,31.4,53.7,43.02Z" />
	</g>
	<path id="wordmark"
		d="M337.55,115.7v-36.57h-11.84v-22.97h11.84v-17.09l29.5-7.55v24.65h20.67v22.97h-20.67v31.44c0,8.83,3.36,11.84,10.78,11.84,2.65,0,5.83-.35,9.19-1.24v22.79c-6.01,1.24-13.07,1.94-19.43,1.94-21.02,0-30.03-8.13-30.03-30.21Zm-66.51,32.06c24.28,0,42.76-8.33,49.82-23.91,2.17-4.89,3.26-10.51,3.26-17.03s-.91-9.42-2.9-13.77c-5.44-12.68-19.2-18.12-34.79-22.47-14.67-4.17-27.9-5.98-31.16-13.23-.72-1.63-.91-3.08-.91-4.89,0-5.44,5.8-9.42,15.22-9.42,11.78,0,16.12,6.16,16.12,13.04h33.15c0-5.25-1.09-8.33-3.44-13.59-6.52-14.86-22.83-22.65-44.57-22.65-22.83,0-39.5,8.88-45.84,23.01-1.99,4.53-3.26,7.79-3.26,13.59s1.09,10.33,2.9,14.31c5.07,11.05,16.67,17.03,29.71,21.02,14.49,4.35,29.53,6.52,33.52,15.4,.72,1.45,1.09,3.08,1.09,5.44,0,6.88-5.8,11.23-16.67,11.23-12.86,0-18.3-6.34-18.3-14.31h-35.15c0,4.89,1.09,9.06,3.44,14.13,6.52,14.49,23.01,24.1,48.74,24.1ZM485.6,56.18v88.14h-29.54v-10.95c-6.01,8.66-14.68,13.6-27.06,13.6-19.81,0-31.31-12.01-31.31-34.09V56.18h29.54v50.34c0,11.66,4.6,16.43,13.8,16.43,9.73,0,15.03-5.65,15.03-17.31V56.18h29.54Zm105.06-36.56v124.71h-28.83v-10.6c-6.37,8.83-15.21,13.07-27.24,13.07-16.27,0-28.12-7.77-34.31-21.2-3.01-6.89-4.78-15.19-4.78-25.44s1.77-18.37,4.78-25.26c6.01-13.42,18.04-21.37,34.31-21.37,11.5,0,20.16,3.89,26.53,12.19V19.61h29.54Zm-29.18,78.07c0-13.07-6.01-20.14-17.16-20.14-7.25,0-12.56,3-15.21,8.83-1.41,3.18-2.12,7.6-2.12,13.78s.71,10.6,2.12,13.95c2.65,5.83,7.96,8.83,15.21,8.83,11.14,0,17.16-7.07,17.16-20.14v-5.12Zm133.89-41.51l-35.55,88.14-14.33,35.68h-29.54l14.5-36.03-34.31-87.79h31.84l18.22,56.35,18.22-56.35h30.95Zm-15.21,74.72c0-10.25,7.07-16.78,17.33-16.78s16.98,6.54,16.98,16.78-6.9,16.78-16.98,16.78-17.33-6.71-17.33-16.78Zm44.04-8.13c-2.83-6.36-4.42-13.95-4.42-22.61s1.59-16.07,4.42-22.43c7.07-15.72,22.64-24.2,43.15-24.2,14.5,0,26.53,4.06,35.02,11.66,7.07,6.36,10.97,15.01,11.67,25.26h-32.01c-.35-4.06-1.95-7.24-4.42-9.54-2.3-2.12-5.84-3.36-10.08-3.36-6.19,0-11.14,2.65-13.62,7.95-1.59,3.53-2.12,7.77-2.12,14.66s.53,11.13,2.12,14.66c2.48,5.3,7.43,7.95,13.62,7.95,4.42,0,7.78-1.06,10.08-3.18,2.65-2.47,4.24-6.18,4.24-9.89h32.01c-.53,10.42-4.24,18.9-11.5,25.44-8.31,7.6-20.52,11.66-35.02,11.66-20.34,0-36.08-8.13-43.15-24.02Zm101.87-.71c-2.83-6.36-4.24-13.42-4.24-21.9s1.41-15.37,4.24-21.73c7.07-15.54,22.46-24.91,44.22-24.91s37.14,9.18,44.04,24.73c3.01,6.36,4.42,13.42,4.42,21.9s-1.41,15.72-4.42,22.08c-6.9,15.37-22.28,24.55-44.04,24.55s-37.14-9.19-44.22-24.73Zm59.07-7.42c1.59-3.53,2.12-8.12,2.12-14.48s-.53-10.95-2.12-14.31c-2.48-5.48-7.25-8.3-14.86-8.3s-12.38,3-14.86,8.3c-1.41,3.36-2.12,8.12-2.12,14.31s.71,10.95,2.12,14.48c2.48,5.3,7.25,8.3,14.86,8.3s12.38-3,14.86-8.3Zm185.71-27.02v56.7h-29.54v-50.52c0-11.3-4.24-16.25-13.09-16.25s-13.97,6.01-13.97,17.31v49.46h-29.36v-50.52c0-11.3-4.42-16.25-13.26-16.25s-13.8,5.83-13.8,17.31v49.46h-29.54V56.18h29.54v10.6c5.48-7.95,14.5-13.25,27.24-13.25s22.46,4.77,26.71,15.01c6.72-10.25,15.92-15.01,28.83-15.01,19.81,0,30.25,12.36,30.25,34.09Z" />
</svg>