<?xml version="1.0" encoding="UTF-8"?>
<svg xmlns="http://www.w3.org/2000/svg" width="288" height="288" viewBox="0 0 288 288" fill="black" stroke="none">
	<g id="symbol">
		<circle id="symbol-fill" fill="white"
			cx="144" cy="144" r="144" />
		<path id="symbol-left" fill="#14748F"
			d="M56.67,258.47c11.61-37.04,17.5-75.35,17.5-114.46s-5.89-77.43-17.51-114.47C22.23,55.84,0,97.32,0,144s22.23,88.16,56.67,114.47Z" />
		<path id="symbol-center" fill="black"
			d="M103.78,213.64c17.9-14.78,37.05-28.1,57.42-39.86,20.37-11.76,41.47-21.69,63.22-29.79-21.75-8.1-42.86-18.02-63.23-29.77-20.37-11.76-39.52-25.07-57.41-39.85,3.86,22.89,5.83,46.13,5.83,69.64s-1.96,46.75-5.83,69.64Z" />
		<path id="symbol-bottom" fill="#4AB3E0"
			d="M178.92,204.47c-33.89,19.57-64.13,43.84-90.41,72.43,17.08,7.14,35.83,11.1,55.5,11.1,73.29,0,133.73-54.77,142.78-125.6-37.88,8.46-73.99,22.51-107.86,42.07Z" />
		<path id="symbol-top" fill="#F58F1B"
			d="M178.91,83.52c33.88,19.56,70,33.61,107.88,42.07C277.75,54.77,217.29,0,144,0c-19.67,0-38.42,3.96-55.5,11.1,26.28,28.59,56.52,52.86,90.41,72.43Z" />
	</g>
</svg>